<svg xmlns="http://www.w3.org/2000/svg" width="512" height="512" viewBox="0 0 512 512">
  <defs>
    <linearGradient id="panel" x1="64" y1="48" x2="448" y2="464" gradientUnits="userSpaceOnUse">
      <stop stop-color="#17131F"/>
      <stop offset="1" stop-color="#0B0A0F"/>
    </linearGradient>
    <linearGradient id="violet" x1="152" y1="128" x2="354" y2="410" gradientUnits="userSpaceOnUse">
      <stop stop-color="#B785FF"/>
      <stop offset="1" stop-color="#8250D6"/>
    </linearGradient>
    <linearGradient id="violetLight" x1="288" y1="152" x2="384" y2="386" gradientUnits="userSpaceOnUse">
      <stop stop-color="#C9A4FF"/>
      <stop offset="1" stop-color="#9762E5"/>
    </linearGradient>
    <radialGradient id="glow" cx="0" cy="0" r="1" gradientTransform="translate(256 250) rotate(90) scale(214)" gradientUnits="userSpaceOnUse">
      <stop stop-color="#9D6CF2" stop-opacity=".18"/>
      <stop offset="1" stop-color="#9D6CF2" stop-opacity="0"/>
    </radialGradient>
    <filter id="shadow" x="70" y="134" width="372" height="298" filterUnits="userSpaceOnUse">
      <feDropShadow dx="0" dy="12" stdDeviation="12" flood-color="#000" flood-opacity=".42"/>
    </filter>
  </defs>

  <rect x="20" y="20" width="472" height="472" rx="112" fill="#08080B"/>
  <rect x="34" y="34" width="444" height="444" rx="98" fill="url(#panel)" stroke="#3A2B4C" stroke-width="4"/>
  <circle cx="256" cy="250" r="214" fill="url(#glow)"/>

  <g filter="url(#shadow)">
    <path d="M256 66 306 116 256 166 206 116 256 66Z" fill="url(#violetLight)"/>
    <path d="M256 82 290 116 256 150 222 116 256 82Z" fill="#B98AFB" opacity=".54"/>

    <path d="M96 182C148 158 203 160 248 190V404C206 369 150 360 96 380V182Z" fill="url(#violet)"/>
    <path d="M264 190C309 160 364 158 416 182V380C362 360 306 369 264 404V190Z" fill="url(#violetLight)"/>
    <path d="M256 190V402" stroke="#E7D9FF" stroke-opacity=".72" stroke-width="8" stroke-linecap="round"/>

    <g fill="none" stroke="#2B1C40" stroke-width="10" stroke-linecap="round" opacity=".62">
      <path d="M132 226C166 216 195 219 218 230"/>
      <path d="M132 268C166 258 195 261 218 272"/>
      <path d="M132 310C166 300 195 303 218 314"/>
      <path d="M294 230C317 219 346 216 380 226"/>
      <path d="M294 272C317 261 346 258 380 268"/>
      <path d="M294 314C317 303 346 300 380 310"/>
    </g>
  </g>
</svg>
